<svg xmlns="http://www.w3.org/2000/svg" width="1280" height="720" viewBox="0 0 1280 720">
  <rect width="1280" height="720" fill="#243447"/>
  <rect x="40" y="36" width="1200" height="648" rx="12" fill="#f1d9aa" stroke="#3b2a1f" stroke-width="6"/>
  <text x="640" y="88" text-anchor="middle" font-family="sans-serif" font-size="36" fill="#3b2a1f">系统依赖关系</text>
  <text x="640" y="124" text-anchor="middle" font-family="sans-serif" font-size="18" fill="#5b3928">核心系统之间的数据流与相位关系</text>

  <defs>
    <marker id="arrowDep" markerWidth="10" markerHeight="10" refX="8" refY="3" orient="auto" markerUnits="strokeWidth">
      <path d="M0,0 L0,6 L9,3 z" fill="#3b2a1f"/>
    </marker>
  </defs>

  <g font-family="sans-serif">
    <rect x="88" y="172" width="230" height="86" rx="10" fill="#d5b17a" stroke="#3b2a1f" stroke-width="5"/>
    <text x="203" y="212" text-anchor="middle" font-size="22" fill="#3b2a1f">时间系统</text>
    <text x="203" y="238" text-anchor="middle" font-size="14" fill="#5b3928">天数·时段·周阶段·终局</text>

    <rect x="88" y="306" width="230" height="86" rx="10" fill="#d5b17a" stroke="#3b2a1f" stroke-width="5"/>
    <text x="203" y="346" text-anchor="middle" font-size="22" fill="#3b2a1f">资源系统</text>
    <text x="203" y="372" text-anchor="middle" font-size="14" fill="#5b3928">香火·神力·阳德·阴德</text>

    <rect x="380" y="172" width="230" height="86" rx="10" fill="#d5b17a" stroke="#3b2a1f" stroke-width="5"/>
    <text x="495" y="212" text-anchor="middle" font-size="22" fill="#3b2a1f">NPC 行为系统</text>
    <text x="495" y="238" text-anchor="middle" font-size="14" fill="#5b3928">日程·状态·关系·业线</text>

    <rect x="380" y="306" width="230" height="86" rx="10" fill="#d5b17a" stroke="#3b2a1f" stroke-width="5"/>
    <text x="495" y="346" text-anchor="middle" font-size="22" fill="#3b2a1f">事件系统</text>
    <text x="495" y="372" text-anchor="middle" font-size="14" fill="#5b3928">触发·结算·历史·AI</text>

    <rect x="672" y="172" width="230" height="86" rx="10" fill="#d5b17a" stroke="#3b2a1f" stroke-width="5"/>
    <text x="787" y="212" text-anchor="middle" font-size="22" fill="#3b2a1f">神力干预系统</text>
    <text x="787" y="238" text-anchor="middle" font-size="14" fill="#5b3928">技能·消耗·窗口·修正</text>

    <rect x="672" y="306" width="230" height="86" rx="10" fill="#d5b17a" stroke="#3b2a1f" stroke-width="5"/>
    <text x="787" y="346" text-anchor="middle" font-size="22" fill="#3b2a1f">结局系统</text>
    <text x="787" y="372" text-anchor="middle" font-size="14" fill="#5b3928">判定·路线·总评·记录</text>

    <rect x="964" y="240" width="230" height="86" rx="10" fill="#f1d05a" stroke="#3b2a1f" stroke-width="5"/>
    <text x="1079" y="280" text-anchor="middle" font-size="22" fill="#5b3928">存档系统</text>
    <text x="1079" y="306" text-anchor="middle" font-size="14" fill="#5b3928">保存·读取·版本</text>

    <rect x="340" y="444" width="600" height="54" rx="10" fill="#8a5a32" stroke="#3b2a1f" stroke-width="5"/>
    <text x="640" y="478" text-anchor="middle" font-size="20" fill="#fff1cf">数据层：NPC 表 · 事件表 · 资源表 · 技能表 · 结局表 · 地点表</text>

    <line x1="203" y1="258" x2="203" y2="302" stroke="#3b2a1f" stroke-width="3" marker-end="url(#arrowDep)"/>
    <line x1="318" y1="302" x2="380" y2="302" stroke="#3b2a1f" stroke-width="3" marker-end="url(#arrowDep)"/>
    <line x1="380" y1="258" x2="380" y2="302" stroke="#3b2a1f" stroke-width="3" marker-end="url(#arrowDep)"/>
    <line x1="610" y1="215" x2="668" y2="215" stroke="#3b2a1f" stroke-width="3" marker-end="url(#arrowDep)"/>
    <line x1="610" y1="349" x2="668" y2="349" stroke="#3b2a1f" stroke-width="3" marker-end="url(#arrowDep)"/>
    <line x1="902" y1="215" x2="960" y2="262" stroke="#3b2a1f" stroke-width="3" marker-end="url(#arrowDep)"/>
    <line x1="902" y1="349" x2="960" y2="305" stroke="#3b2a1f" stroke-width="3" marker-end="url(#arrowDep)"/>
  </g>
</svg>