<svg xmlns="http://www.w3.org/2000/svg" width="1280" height="720" viewBox="0 0 1280 720">
  <rect width="1280" height="720" fill="#243447"/>
  <rect x="0" y="480" width="1280" height="240" fill="#5f8f57"/>
  <rect x="0" y="540" width="1280" height="180" fill="#3f6b3f"/>
  <circle cx="1050" cy="120" r="56" fill="#f6d27a" opacity="0.85"/>
  <rect x="120" y="350" width="180" height="140" fill="#8b5a2b" stroke="#3b2416" stroke-width="6"/>
  <polygon points="95,350 210,260 325,350" fill="#b8523f" stroke="#3b2416" stroke-width="6"/>
  <rect x="182" y="410" width="56" height="80" fill="#2e1d16"/>
  <rect x="900" y="390" width="160" height="100" fill="#8b5a2b" stroke="#3b2416" stroke-width="6"/>
  <polygon points="875,390 980,310 1085,390" fill="#b8523f" stroke="#3b2416" stroke-width="6"/>
  <g opacity="0.35" fill="#ffffff">
    <rect x="0" y="210" width="1280" height="22"/>
    <rect x="0" y="260" width="1280" height="14"/>
  </g>
  <rect x="410" y="70" width="460" height="580" rx="8" fill="#f1d9aa" stroke="#3c2a1e" stroke-width="8"/>
  <rect x="430" y="90" width="420" height="540" rx="4" fill="#c89458" stroke="#6b3f24" stroke-width="4"/>
  <text x="640" y="170" text-anchor="middle" font-family="serif" font-size="54" fill="#3a2118">命运的织线</text>
  <text x="640" y="214" text-anchor="middle" font-family="serif" font-size="18" fill="#5b3928">像素小镇 · 土地公 · 命运干预</text>
  <g font-family="sans-serif" font-size="26" text-anchor="middle">
    <rect x="500" y="260" width="280" height="48" fill="#8a5a32" stroke="#3a2118" stroke-width="4"/>
    <text x="640" y="292" fill="#fff1cf">继续游戏</text>
    <rect x="500" y="324" width="280" height="48" fill="#b8753c" stroke="#3a2118" stroke-width="4"/>
    <text x="640" y="356" fill="#fff1cf">新游戏</text>
    <rect x="500" y="388" width="280" height="48" fill="#b8753c" stroke="#3a2118" stroke-width="4"/>
    <text x="640" y="420" fill="#fff1cf">加载游戏</text>
    <rect x="500" y="452" width="280" height="48" fill="#b8753c" stroke="#3a2118" stroke-width="4"/>
    <text x="640" y="484" fill="#fff1cf">设置</text>
    <rect x="500" y="516" width="280" height="48" fill="#b8753c" stroke="#3a2118" stroke-width="4"/>
    <text x="640" y="548" fill="#fff1cf">关于我们</text>
    <rect x="500" y="580" width="280" height="48" fill="#714432" stroke="#3a2118" stroke-width="4"/>
    <text x="640" y="612" fill="#fff1cf">退出游戏</text>
  </g>
  <text x="30" y="690" font-family="sans-serif" font-size="18" fill="#e8d7b5">01 Main Menu · warm pixel village, wooden buttons, clear vertical navigation</text>
</svg>
