<svg xmlns="http://www.w3.org/2000/svg" width="1280" height="720" viewBox="0 0 1280 720">
  <rect width="1280" height="720" fill="#2e4b5f"/>
  <rect x="20" y="20" width="1240" height="62" fill="#d5b17a" stroke="#3b2a1f" stroke-width="6"/>
  <text x="48" y="60" font-family="sans-serif" font-size="24" fill="#2b1a12">第12天 · 夜晚</text>
  <g font-family="sans-serif" font-size="22" fill="#2b1a12">
    <text x="300" y="60">香火 63</text>
    <text x="430" y="60">神力 4</text>
    <text x="550" y="60">阳德 20</text>
    <text x="690" y="60">阴德 8</text>
  </g>
  <rect x="1130" y="34" width="96" height="34" fill="#8a5a32" stroke="#3b2a1f" stroke-width="3"/>
  <text x="1178" y="58" text-anchor="middle" font-family="sans-serif" font-size="20" fill="#fff1cf">设置</text>

  <rect x="20" y="102" width="260" height="438" fill="#f1d9aa" stroke="#3b2a1f" stroke-width="6"/>
  <text x="48" y="145" font-family="sans-serif" font-size="24" fill="#3b2a1f">当前提示</text>
  <rect x="48" y="170" width="204" height="76" fill="#d6c08d" stroke="#6b4a2f" stroke-width="3"/>
  <text x="64" y="202" font-family="sans-serif" font-size="18" fill="#3b2a1f">天气：海雾</text>
  <text x="64" y="228" font-family="sans-serif" font-size="18" fill="#3b2a1f">特殊日：庙会前夜</text>
  <rect x="48" y="270" width="204" height="86" fill="#7b2e2e" stroke="#3b1111" stroke-width="3"/>
  <text x="64" y="302" font-family="sans-serif" font-size="18" fill="#ffe6c7">危险征兆</text>
  <text x="64" y="330" font-family="sans-serif" font-size="16" fill="#ffe6c7">寺庙香火异常</text>

  <rect x="300" y="102" width="960" height="438" fill="#78a96a" stroke="#3b2a1f" stroke-width="6"/>
  <path d="M320 460 C450 360 560 410 660 300 S880 220 1120 330" stroke="#d7c38a" stroke-width="34" fill="none" opacity="0.9"/>
  <path d="M380 160 C500 250 520 330 580 500" stroke="#6d8fba" stroke-width="24" fill="none"/>
  <g font-family="sans-serif" font-size="18" text-anchor="middle" fill="#2b1a12">
    <rect x="420" y="170" width="94" height="58" fill="#c88752" stroke="#3b2a1f" stroke-width="4"/><text x="467" y="207">学校</text>
    <rect x="650" y="250" width="94" height="58" fill="#c88752" stroke="#3b2a1f" stroke-width="4"/><text x="697" y="287">商业街</text>
    <rect x="890" y="160" width="94" height="58" fill="#c88752" stroke="#3b2a1f" stroke-width="4"/><text x="937" y="197">寺庙</text>
    <rect x="1010" y="365" width="94" height="58" fill="#c88752" stroke="#3b2a1f" stroke-width="4"/><text x="1057" y="402">港口</text>
  </g>
  <g>
    <circle cx="935" cy="150" r="18" fill="#b3222a" stroke="#fff1cf" stroke-width="4"/>
    <text x="935" y="157" text-anchor="middle" font-family="sans-serif" font-size="22" fill="#fff">!</text>
    <circle cx="690" cy="240" r="15" fill="#f1d05a" stroke="#3b2a1f" stroke-width="3"/>
    <text x="690" y="247" text-anchor="middle" font-family="sans-serif" font-size="18" fill="#3b2a1f">?</text>
  </g>

  <rect x="20" y="562" width="1240" height="138" fill="#d5b17a" stroke="#3b2a1f" stroke-width="6"/>
  <g font-family="sans-serif" font-size="21" text-anchor="middle">
    <rect x="48" y="588" width="120" height="42" fill="#b8753c" stroke="#3b2a1f" stroke-width="3"/><text x="108" y="616" fill="#fff1cf">人物</text>
    <rect x="178" y="588" width="120" height="42" fill="#8a5a32" stroke="#3b2a1f" stroke-width="3"/><text x="238" y="616" fill="#fff1cf">事件</text>
    <rect x="308" y="588" width="120" height="42" fill="#b8753c" stroke="#3b2a1f" stroke-width="3"/><text x="368" y="616" fill="#fff1cf">缘线</text>
    <rect x="438" y="588" width="120" height="42" fill="#b8753c" stroke="#3b2a1f" stroke-width="3"/><text x="498" y="616" fill="#fff1cf">业线</text>
  </g>
  <text x="60" y="665" font-family="sans-serif" font-size="20" fill="#3b2a1f">当前事件：寺庙香火异常 · 建议查看后再推动时间</text>
  <rect x="1030" y="592" width="190" height="70" fill="#7b2e2e" stroke="#3b1111" stroke-width="5"/>
  <text x="1125" y="637" text-anchor="middle" font-family="sans-serif" font-size="28" fill="#ffe6c7">推动时间</text>
  <text x="30" y="710" font-family="sans-serif" font-size="16" fill="#e8d7b5">02 HUD Map · top resources, left warnings, clickable map, bottom tabs, strong time-advance CTA</text>
</svg>
