<svg xmlns="http://www.w3.org/2000/svg" width="1280" height="720" viewBox="0 0 1280 720">
  <rect width="1280" height="720" fill="#2e4b5f"/>
  <rect x="28" y="24" width="1224" height="672" fill="#d5b17a" stroke="#3b2a1f" stroke-width="6"/>
  <rect x="48" y="44" width="1184" height="56" fill="#8a5a32" stroke="#3b2a1f" stroke-width="4"/>
  <text x="76" y="80" font-family="sans-serif" font-size="26" fill="#fff1cf">地点面板：寺庙</text>
  <text x="1150" y="80" text-anchor="middle" font-family="sans-serif" font-size="22" fill="#fff1cf">返回地图</text>

  <rect x="60" y="124" width="430" height="528" fill="#f1d9aa" stroke="#3b2a1f" stroke-width="5"/>
  <rect x="92" y="154" width="366" height="190" fill="#78a96a" stroke="#3b2a1f" stroke-width="5"/>
  <rect x="190" y="230" width="160" height="86" fill="#8b5a2b" stroke="#3b2416" stroke-width="5"/>
  <polygon points="170,230 270,150 370,230" fill="#b8523f" stroke="#3b2416" stroke-width="5"/>
  <rect x="250" y="270" width="42" height="46" fill="#2e1d16"/>
  <circle cx="355" cy="176" r="22" fill="#f1d05a" opacity="0.85"/>
  <text x="92" y="386" font-family="sans-serif" font-size="23" fill="#3b2a1f">地点简介</text>
  <text x="92" y="426" font-family="sans-serif" font-size="18" fill="#3b2a1f">归潮镇最古老的土地庙。</text>
  <text x="92" y="456" font-family="sans-serif" font-size="18" fill="#3b2a1f">近期香火忽明忽暗，夜间常有海雾。</text>
  <text x="92" y="486" font-family="sans-serif" font-size="18" fill="#3b2a1f">这里是多条业线交汇的位置。</text>

  <rect x="524" y="124" width="316" height="528" fill="#f1d9aa" stroke="#3b2a1f" stroke-width="5"/>
  <text x="554" y="166" font-family="sans-serif" font-size="24" fill="#3b2a1f">今日人物</text>
  <rect x="554" y="194" width="246" height="64" fill="#d6c08d" stroke="#6b4a2f" stroke-width="3"/>
  <circle cx="586" cy="226" r="20" fill="#c88752" stroke="#3b2a1f" stroke-width="3"/>
  <text x="622" y="222" font-family="sans-serif" font-size="18" fill="#3b2a1f">林潮音</text>
  <text x="622" y="246" font-family="sans-serif" font-size="15" fill="#5b3928">夜晚到访 · 状态焦虑</text>
  <rect x="554" y="274" width="246" height="64" fill="#d6c08d" stroke="#6b4a2f" stroke-width="3"/>
  <circle cx="586" cy="306" r="20" fill="#c88752" stroke="#3b2a1f" stroke-width="3"/>
  <text x="622" y="302" font-family="sans-serif" font-size="18" fill="#3b2a1f">周阿婆</text>
  <text x="622" y="326" font-family="sans-serif" font-size="15" fill="#5b3928">清晨上香 · 有传闻</text>

  <text x="554" y="396" font-family="sans-serif" font-size="24" fill="#3b2a1f">地点状态</text>
  <rect x="554" y="424" width="246" height="46" fill="#7b2e2e" stroke="#3b1111" stroke-width="3"/>
  <text x="676" y="454" text-anchor="middle" font-family="sans-serif" font-size="18" fill="#ffe6c7">香火异常</text>
  <rect x="554" y="482" width="246" height="46" fill="#d6c08d" stroke="#6b4a2f" stroke-width="3"/>
  <text x="676" y="512" text-anchor="middle" font-family="sans-serif" font-size="18" fill="#3b2a1f">海雾影响视野</text>

  <rect x="874" y="124" width="346" height="528" fill="#f1d9aa" stroke="#3b2a1f" stroke-width="5"/>
  <text x="904" y="166" font-family="sans-serif" font-size="24" fill="#3b2a1f">地点事件</text>
  <rect x="904" y="194" width="276" height="86" fill="#7b2e2e" stroke="#3b1111" stroke-width="4"/>
  <text x="924" y="228" font-family="sans-serif" font-size="20" fill="#ffe6c7">危险：寺庙香火异常</text>
  <text x="924" y="256" font-family="sans-serif" font-size="16" fill="#ffe6c7">建议查看后再推动时间</text>
  <rect x="904" y="300" width="276" height="76" fill="#d6c08d" stroke="#6b4a2f" stroke-width="3"/>
  <text x="924" y="332" font-family="sans-serif" font-size="18" fill="#3b2a1f">线索：有人夜间看见红光</text>
  <text x="924" y="358" font-family="sans-serif" font-size="15" fill="#5b3928">可询问在场人物</text>

  <text x="904" y="434" font-family="sans-serif" font-size="24" fill="#3b2a1f">操作</text>
  <rect x="904" y="462" width="126" height="48" fill="#b8753c" stroke="#3b2a1f" stroke-width="3"/>
  <text x="967" y="493" text-anchor="middle" font-family="sans-serif" font-size="19" fill="#fff1cf">查看事件</text>
  <rect x="1054" y="462" width="126" height="48" fill="#b8753c" stroke="#3b2a1f" stroke-width="3"/>
  <text x="1117" y="493" text-anchor="middle" font-family="sans-serif" font-size="19" fill="#fff1cf">干预地点</text>

  <text x="30" y="710" font-family="sans-serif" font-size="16" fill="#e8d7b5">04 Location Panel · place illustration, present NPCs, location state, event cards, action buttons</text>
</svg>
