<svg xmlns="http://www.w3.org/2000/svg" width="1280" height="720" viewBox="0 0 1280 720">
  <rect width="1280" height="720" fill="#243447"/>
  <rect x="30" y="26" width="1220" height="668" fill="#d5b17a" stroke="#3b2a1f" stroke-width="6"/>
  <rect x="54" y="50" width="1172" height="54" fill="#7b2e2e" stroke="#3b1111" stroke-width="4"/>
  <text x="82" y="84" font-family="sans-serif" font-size="25" fill="#ffe6c7">事件推进：寺庙香火异常</text>
  <text x="1140" y="84" text-anchor="middle" font-family="sans-serif" font-size="20" fill="#ffe6c7">第12天 · 夜晚</text>

  <rect x="70" y="126" width="438" height="350" fill="#2e4b5f" stroke="#3b2a1f" stroke-width="5"/>
  <rect x="142" y="230" width="220" height="130" fill="#8b5a2b" stroke="#3b2416" stroke-width="5"/>
  <polygon points="116,230 252,126 388,230" fill="#b8523f" stroke="#3b2416" stroke-width="5"/>
  <rect x="232" y="286" width="48" height="74" fill="#2e1d16"/>
  <g opacity="0.32" fill="#ffffff">
    <rect x="80" y="165" width="420" height="18"/>
    <rect x="70" y="395" width="438" height="18"/>
  </g>
  <circle cx="398" cy="164" r="28" fill="#f1d05a" opacity="0.75"/>
  <path d="M254 284 C230 250 282 246 256 214 C298 248 272 258 300 290" stroke="#f1d05a" stroke-width="7" fill="none" opacity="0.85"/>

  <rect x="536" y="126" width="676" height="350" fill="#f1d9aa" stroke="#3b2a1f" stroke-width="5"/>
  <text x="570" y="170" font-family="sans-serif" font-size="24" fill="#3b2a1f">事件文本</text>
  <text x="570" y="220" font-family="sans-serif" font-size="21" fill="#3b2a1f">夜雾从海边压进镇子，寺庙前的香炉忽然暗了下去。</text>
  <text x="570" y="260" font-family="sans-serif" font-size="21" fill="#3b2a1f">林潮音站在庙门外，像是在等待什么，又像是不敢进去。</text>
  <text x="570" y="300" font-family="sans-serif" font-size="21" fill="#3b2a1f">你感到一条业线在这里收紧，若放任它继续，明日会有人受伤。</text>
  <rect x="570" y="346" width="280" height="44" fill="#d6c08d" stroke="#6b4a2f" stroke-width="3"/>
  <text x="710" y="374" text-anchor="middle" font-family="sans-serif" font-size="18" fill="#3b2a1f">已发现线索 2 / 3</text>
  <rect x="870" y="346" width="280" height="44" fill="#7b2e2e" stroke="#3b1111" stroke-width="3"/>
  <text x="1010" y="374" text-anchor="middle" font-family="sans-serif" font-size="18" fill="#ffe6c7">危险等级：高</text>

  <rect x="70" y="504" width="1142" height="150" fill="#f1d9aa" stroke="#3b2a1f" stroke-width="5"/>
  <text x="104" y="546" font-family="sans-serif" font-size="24" fill="#3b2a1f">选择干预</text>
  <rect x="104" y="570" width="240" height="58" fill="#b8753c" stroke="#3b2a1f" stroke-width="4"/>
  <text x="224" y="607" text-anchor="middle" font-family="sans-serif" font-size="22" fill="#fff1cf">托梦提醒</text>
  <text x="224" y="646" text-anchor="middle" font-family="sans-serif" font-size="15" fill="#3b2a1f">神力 -2 · 风险低</text>
  <rect x="374" y="570" width="240" height="58" fill="#b8753c" stroke="#3b2a1f" stroke-width="4"/>
  <text x="494" y="607" text-anchor="middle" font-family="sans-serif" font-size="22" fill="#fff1cf">牵引机缘</text>
  <text x="494" y="646" text-anchor="middle" font-family="sans-serif" font-size="15" fill="#3b2a1f">神力 -3 · 结果不明</text>
  <rect x="644" y="570" width="240" height="58" fill="#714432" stroke="#3b2a1f" stroke-width="4"/>
  <text x="764" y="607" text-anchor="middle" font-family="sans-serif" font-size="22" fill="#fff1cf">遮蔽灾兆</text>
  <text x="764" y="646" text-anchor="middle" font-family="sans-serif" font-size="15" fill="#3b2a1f">神力不足</text>
  <rect x="958" y="568" width="198" height="70" fill="#8a5a32" stroke="#3b2a1f" stroke-width="4"/>
  <text x="1057" y="612" text-anchor="middle" font-family="sans-serif" font-size="24" fill="#fff1cf">暂不干预</text>

  <text x="30" y="710" font-family="sans-serif" font-size="16" fill="#e8d7b5">05 Event Panel · scene image, readable event text, clue/risk status, intervention choices</text>
</svg>
