<svg xmlns="http://www.w3.org/2000/svg" width="1280" height="720" viewBox="0 0 1280 720">
  <rect width="1280" height="720" fill="#243447"/>
  <rect x="120" y="54" width="1040" height="612" fill="#d5b17a" stroke="#3b2a1f" stroke-width="7"/>
  <rect x="146" y="82" width="988" height="56" fill="#8a5a32" stroke="#3b2a1f" stroke-width="4"/>
  <text x="178" y="118" font-family="sans-serif" font-size="28" fill="#fff1cf">设置</text>
  <text x="1060" y="118" text-anchor="middle" font-family="sans-serif" font-size="22" fill="#fff1cf">关闭</text>

  <rect x="150" y="166" width="230" height="450" fill="#f1d9aa" stroke="#3b2a1f" stroke-width="5"/>
  <g font-family="sans-serif" font-size="22" text-anchor="middle">
    <rect x="176" y="198" width="178" height="48" fill="#8a5a32" stroke="#3b2a1f" stroke-width="3"/>
    <text x="265" y="230" fill="#fff1cf">音频</text>
    <rect x="176" y="260" width="178" height="48" fill="#b8753c" stroke="#3b2a1f" stroke-width="3"/>
    <text x="265" y="292" fill="#fff1cf">显示</text>
    <rect x="176" y="322" width="178" height="48" fill="#b8753c" stroke="#3b2a1f" stroke-width="3"/>
    <text x="265" y="354" fill="#fff1cf">文本</text>
    <rect x="176" y="384" width="178" height="48" fill="#b8753c" stroke="#3b2a1f" stroke-width="3"/>
    <text x="265" y="416" fill="#fff1cf">操作</text>
    <rect x="176" y="446" width="178" height="48" fill="#b8753c" stroke="#3b2a1f" stroke-width="3"/>
    <text x="265" y="478" fill="#fff1cf">辅助功能</text>
  </g>

  <rect x="412" y="166" width="722" height="450" fill="#f1d9aa" stroke="#3b2a1f" stroke-width="5"/>
  <text x="452" y="210" font-family="sans-serif" font-size="26" fill="#3b2a1f">音频设置</text>

  <g font-family="sans-serif" font-size="20" fill="#3b2a1f">
    <text x="452" y="274">主音量</text>
    <rect x="590" y="252" width="360" height="26" fill="#d6c08d" stroke="#6b4a2f" stroke-width="3"/>
    <rect x="590" y="252" width="260" height="26" fill="#b8753c"/>
    <rect x="838" y="244" width="28" height="42" fill="#8a5a32" stroke="#3b2a1f" stroke-width="3"/>
    <text x="982" y="274">72%</text>

    <text x="452" y="334">音乐</text>
    <rect x="590" y="312" width="360" height="26" fill="#d6c08d" stroke="#6b4a2f" stroke-width="3"/>
    <rect x="590" y="312" width="220" height="26" fill="#b8753c"/>
    <rect x="798" y="304" width="28" height="42" fill="#8a5a32" stroke="#3b2a1f" stroke-width="3"/>
    <text x="982" y="334">61%</text>

    <text x="452" y="394">音效</text>
    <rect x="590" y="372" width="360" height="26" fill="#d6c08d" stroke="#6b4a2f" stroke-width="3"/>
    <rect x="590" y="372" width="292" height="26" fill="#b8753c"/>
    <rect x="870" y="364" width="28" height="42" fill="#8a5a32" stroke="#3b2a1f" stroke-width="3"/>
    <text x="982" y="394">81%</text>

    <text x="452" y="454">环境音</text>
    <rect x="590" y="432" width="360" height="26" fill="#d6c08d" stroke="#6b4a2f" stroke-width="3"/>
    <rect x="590" y="432" width="180" height="26" fill="#b8753c"/>
    <rect x="758" y="424" width="28" height="42" fill="#8a5a32" stroke="#3b2a1f" stroke-width="3"/>
    <text x="982" y="454">50%</text>
  </g>

  <rect x="452" y="516" width="190" height="50" fill="#b8753c" stroke="#3b2a1f" stroke-width="4"/>
  <text x="547" y="549" text-anchor="middle" font-family="sans-serif" font-size="21" fill="#fff1cf">恢复默认</text>
  <rect x="868" y="516" width="190" height="50" fill="#8a5a32" stroke="#3b2a1f" stroke-width="4"/>
  <text x="963" y="549" text-anchor="middle" font-family="sans-serif" font-size="21" fill="#fff1cf">应用</text>

  <text x="140" y="648" font-family="sans-serif" font-size="17" fill="#3b2a1f">键盘：Tab 切换焦点，Enter 确认，Esc 返回。鼠标：点击按钮与拖动滑条。</text>
  <text x="30" y="710" font-family="sans-serif" font-size="16" fill="#e8d7b5">06 Settings · tab list, large readable controls, keyboard navigation note, low-cost pixel UI</text>
</svg>
